<?xml version="1.0" encoding="UTF-8"?><svg id="c" xmlns="http://www.w3.org/2000/svg" viewBox="0 0 1000 1000"><rect y="405" width="70" height="100" /><rect y="215.06" width="70" height="116.89" /><polygon points="70 142 0 142 0 7 135 7 135 77 70 77 70 142" /><path d="M743.9,77h-187.36V7h187.36v70ZM439.45,77h-187.35V7h187.35v70Z" /><polygon points="996 142 926 142 926 77 861 77 861 7 996 7 996 142" /><rect x="926" y="215.06" width="70" height="116.89" /><rect x="926" y="405" width="70" height="100" /><path d="M35,540c-.57,0-1.15-.02-1.73-.04-.57-.03-1.14-.08-1.71-.13-.57-.06-1.14-.13-1.71-.22-.56-.08-1.13-.18-1.69-.3-.56-.11-1.12-.24-1.67-.38-.55-.14-1.11-.29-1.65-.46-.55-.16-1.09-.34-1.63-.54-.53-.19-1.07-.4-1.6-.61-.52-.22-1.05-.45-1.56-.7-.52-.24-1.03-.5-1.53-.76-.51-.27-1.01-.56-1.5-.85s-.98-.6-1.45-.91c-.47-.32-.95-.65-1.41-.99-.46-.33-.91-.69-1.35-1.05-.45-.36-.89-.74-1.31-1.12-.43-.39-.85-.79-1.25-1.19s-.81-.83-1.19-1.25-.76-.86-1.12-1.31c-.36-.44-.72-.9-1.06-1.36-.33-.45-.67-.93-.98-1.4-.32-.48-.62-.96-.92-1.45-.29-.49-.57-.99-.84-1.5-.27-.5-.52-1.01-.77-1.53-.24-.51-.47-1.04-.69-1.56-.22-.53-.42-1.07-.62-1.6-.19-.54-.37-1.08-.54-1.63-.16-.54-.32-1.1-.46-1.65-.13-.55-.26-1.11-.37-1.67-.12-.56-.22-1.13-.3-1.69-.09-.57-.16-1.14-.22-1.71-.05-.57-.1-1.15-.13-1.72-.03-.57-.04-1.15-.04-1.72s0-1.15.04-1.73c.03-.57.08-1.14.13-1.71.06-.57.13-1.14.22-1.71.08-.56.18-1.13.3-1.69.11-.56.24-1.12.37-1.67.14-.55.3-1.11.46-1.65.17-.55.35-1.09.54-1.63.2-.54.4-1.07.62-1.6.22-.52.45-1.05.69-1.56.25-.52.5-1.03.77-1.54.27-.5.55-1,.84-1.49.3-.49.6-.98.92-1.45.31-.47.65-.95.98-1.41.34-.45.7-.91,1.06-1.35.36-.45.74-.89,1.12-1.31s.78-.84,1.19-1.25c.4-.4.82-.8,1.25-1.19.42-.38.86-.76,1.31-1.12.44-.36.89-.72,1.35-1.06.46-.33.94-.66,1.41-.98.47-.32.96-.62,1.45-.91.49-.3.99-.58,1.5-.85.5-.26,1.01-.52,1.53-.77.51-.24,1.04-.47,1.56-.69.53-.22,1.07-.42,1.6-.61.54-.2,1.08-.38,1.63-.54.54-.17,1.1-.32,1.65-.46.55-.14,1.11-.27,1.67-.38.56-.12,1.13-.22,1.69-.3.57-.09,1.14-.16,1.71-.22.57-.05,1.14-.1,1.71-.13,1.15-.05,2.31-.05,3.45,0,.57.03,1.15.08,1.72.13.57.06,1.14.13,1.71.22.56.08,1.13.18,1.69.3.55.11,1.12.24,1.67.38.55.14,1.11.29,1.65.46.54.16,1.09.34,1.63.54.53.19,1.07.39,1.59.61.53.22,1.06.45,1.57.69.52.25,1.03.51,1.53.77.5.27,1.01.55,1.5.85.48.29.97.59,1.45.91.47.32.94.65,1.4.98.46.34.92.7,1.36,1.06.44.36.88.74,1.31,1.12.42.39.84.79,1.25,1.19.4.41.8.83,1.19,1.25.38.42.76.86,1.12,1.31.36.44.71.9,1.05,1.35.34.46.67.94.99,1.41.31.47.62.96.91,1.45.3.49.58.99.85,1.49.26.51.52,1.02.76,1.54.25.51.48,1.04.7,1.56.22.53.42,1.06.62,1.6.19.54.37,1.08.54,1.63.16.54.32,1.1.46,1.65.13.55.26,1.11.37,1.67.12.56.22,1.13.3,1.69.09.57.16,1.14.22,1.71.05.57.1,1.14.13,1.71.02.58.04,1.16.04,1.73s-.02,1.15-.04,1.72c-.03.57-.08,1.15-.13,1.72-.06.57-.13,1.14-.22,1.71-.08.56-.18,1.13-.3,1.69-.11.56-.24,1.12-.37,1.67-.14.55-.3,1.11-.46,1.65-.17.55-.35,1.09-.54,1.63-.2.53-.4,1.07-.62,1.6-.22.52-.45,1.05-.7,1.56-.24.52-.5,1.03-.76,1.53-.27.51-.55,1.01-.85,1.5-.29.49-.6.97-.91,1.45-.32.47-.65.95-.99,1.4-.34.46-.69.92-1.05,1.36-.36.45-.74.89-1.12,1.31-.39.42-.79.84-1.19,1.25-.41.4-.83.8-1.25,1.19-.43.38-.87.76-1.31,1.12-.44.36-.9.72-1.36,1.05-.46.34-.93.67-1.4.99-.48.31-.97.62-1.45.91-.49.29-1,.58-1.5.85-.5.26-1.01.52-1.53.76-.51.25-1.04.48-1.57.7-.52.21-1.06.42-1.59.61-.54.2-1.09.38-1.63.54-.54.17-1.1.32-1.65.46s-1.12.27-1.67.38c-.56.12-1.13.22-1.69.3-.57.09-1.14.16-1.71.22-.57.05-1.15.1-1.72.13-.57.02-1.15.04-1.72.04Z" /><path d="M0,853c0-19.33,15.67-35,35-35h0c19.33,0,35,15.67,35,35h0c0,19.33-15.67,35-35,35h0c-19.33,0-35-15.67-35-35ZM0,737c0-19.33,15.67-35,35-35h0c19.33,0,35,15.67,35,35h0c0,19.33-15.67,35-35,35h0c-19.33,0-35-15.67-35-35ZM0,621c0-19.33,15.67-35,35-35h0c19.33,0,35,15.67,35,35h0c0,19.33-15.67,35-35,35h0c-19.33,0-35-15.67-35-35Z" /><path d="M35,1004c-.57,0-1.15-.02-1.73-.04-.57-.03-1.14-.08-1.71-.13-.57-.06-1.15-.13-1.71-.22-.56-.08-1.13-.18-1.69-.3-.56-.11-1.12-.24-1.67-.38-.55-.14-1.11-.29-1.65-.46-.55-.16-1.09-.34-1.63-.54-.54-.19-1.07-.39-1.6-.61-.52-.22-1.05-.45-1.56-.7-.52-.24-1.03-.5-1.54-.76-.5-.27-1-.56-1.49-.85s-.98-.6-1.45-.91c-.47-.32-.95-.65-1.41-.99-.46-.33-.91-.69-1.35-1.05-.45-.36-.89-.74-1.31-1.12-.43-.39-.85-.79-1.25-1.19s-.81-.83-1.19-1.25c-.38-.43-.76-.87-1.12-1.31-.36-.44-.72-.9-1.06-1.36-.33-.45-.67-.93-.98-1.4-.32-.48-.62-.96-.92-1.45-.29-.49-.57-.99-.84-1.5-.27-.5-.52-1.01-.77-1.53-.24-.51-.47-1.04-.69-1.56-.22-.53-.43-1.07-.62-1.6-.19-.54-.37-1.08-.54-1.63-.16-.54-.32-1.1-.46-1.65-.14-.55-.26-1.11-.38-1.67-.11-.56-.21-1.13-.29-1.69-.09-.57-.16-1.14-.22-1.71-.06-.57-.1-1.15-.13-1.72-.03-.57-.04-1.15-.04-1.72s0-1.15.04-1.73c.03-.57.07-1.14.13-1.71.06-.57.13-1.14.22-1.71.08-.56.18-1.13.29-1.69.12-.56.24-1.12.38-1.67.14-.55.3-1.11.46-1.65.17-.55.35-1.09.54-1.63.19-.54.4-1.07.62-1.6.22-.52.45-1.05.69-1.57.25-.51.5-1.02.77-1.53.27-.5.55-1,.84-1.49.3-.49.6-.98.92-1.45.31-.48.65-.95.98-1.41.34-.46.7-.91,1.06-1.35.36-.45.74-.89,1.12-1.31.38-.43.78-.85,1.19-1.25.4-.41.82-.81,1.25-1.19.42-.38.86-.76,1.31-1.12.44-.36.89-.72,1.35-1.06s.94-.67,1.41-.98c.47-.32.96-.62,1.45-.92.49-.29.99-.57,1.49-.84.51-.27,1.02-.52,1.54-.77.51-.24,1.04-.47,1.56-.69.53-.22,1.06-.43,1.6-.62.54-.19,1.08-.37,1.63-.54.54-.16,1.1-.32,1.65-.46.55-.14,1.11-.26,1.67-.38.56-.11,1.13-.21,1.69-.29.56-.09,1.14-.16,1.71-.22.57-.06,1.14-.1,1.71-.13,1.15-.06,2.31-.06,3.45,0,.57.03,1.15.07,1.72.13.57.06,1.14.13,1.71.22.56.08,1.13.18,1.69.29.55.12,1.12.24,1.67.38.55.14,1.11.3,1.65.46.54.17,1.09.35,1.63.54.53.19,1.07.4,1.59.62.53.22,1.06.45,1.57.69.52.25,1.03.5,1.53.77.5.27,1.01.55,1.49.84.49.3.98.6,1.46.92.47.31.94.64,1.4.98s.92.7,1.36,1.06c.44.36.88.74,1.31,1.12.42.38.84.78,1.25,1.19s.8.82,1.19,1.25c.38.42.76.86,1.12,1.31.36.44.71.89,1.05,1.35.34.46.67.93.99,1.41.31.47.62.96.91,1.45s.58.99.84,1.49c.27.51.53,1.02.77,1.53.25.52.48,1.05.7,1.57.21.53.42,1.06.61,1.6.2.54.38,1.08.54,1.63.17.54.32,1.1.46,1.65.14.55.27,1.11.38,1.67.12.56.22,1.13.3,1.69.09.57.16,1.14.22,1.71.05.57.1,1.14.13,1.71.02.58.04,1.16.04,1.73s-.02,1.15-.04,1.72c-.03.57-.08,1.15-.13,1.72-.06.57-.13,1.14-.22,1.71-.08.56-.18,1.13-.3,1.69-.11.56-.24,1.12-.38,1.67s-.29,1.11-.46,1.65c-.16.55-.34,1.09-.54,1.63-.19.53-.4,1.07-.61,1.6-.22.52-.45,1.05-.7,1.56-.24.52-.5,1.03-.77,1.53-.26.51-.55,1.01-.84,1.5s-.6.97-.91,1.45c-.32.47-.65.95-.99,1.4-.34.46-.69.92-1.05,1.36-.36.44-.74.88-1.12,1.31-.39.42-.79.84-1.19,1.25-.41.4-.83.8-1.25,1.19-.43.38-.87.76-1.31,1.12-.44.36-.9.72-1.36,1.05-.46.34-.93.67-1.4.99-.48.31-.97.62-1.46.91-.48.29-.99.58-1.49.85-.5.26-1.01.52-1.53.76-.51.25-1.04.48-1.57.7-.52.22-1.06.42-1.59.61-.54.2-1.09.38-1.63.54-.54.17-1.1.32-1.65.46s-1.12.27-1.67.38c-.56.12-1.13.22-1.69.3-.57.09-1.14.16-1.71.22-.57.05-1.15.1-1.72.13-.57.02-1.15.04-1.72.04Z" /><path d="M793.71,969c0-19.33,15.67-35,35-35h0c19.33,0,35,15.67,35,35h0c0,19.33-15.67,35-35,35h0c-19.33,0-35-15.67-35-35ZM661.42,969c0-19.33,15.67-35,35.01-35h0c19.33,0,35,15.67,35,35h0c0,19.33-15.67,35-35,35h0c-19.34,0-35.01-15.67-35.01-35ZM529.14,969c0-19.33,15.67-35,35-35h0c19.33,0,35,15.67,35,35h0c0,19.33-15.67,35-35,35h0c-19.33,0-35-15.67-35-35ZM396.85,969c0-19.33,15.67-35,35.01-35h0c19.33,0,35,15.67,35,35h0c0,19.33-15.67,35-35,35h0c-19.34,0-35.01-15.67-35.01-35ZM264.57,969c0-19.33,15.67-35,35-35h0c19.33,0,35,15.67,35,35h0c0,19.33-15.67,35-35,35h0c-19.33,0-35-15.67-35-35ZM132.28,969c0-19.33,15.67-35,35-35h0c19.33,0,35,15.67,35,35h0c0,19.33-15.67,35-35,35h0c-19.33,0-35-15.67-35-35Z" /><path d="M961,1004c-.58,0-1.16-.02-1.73-.04-.57-.03-1.15-.08-1.71-.13-.57-.06-1.15-.13-1.71-.22-.56-.08-1.13-.18-1.69-.3-.56-.11-1.12-.24-1.67-.38-.55-.14-1.11-.29-1.65-.46-.55-.16-1.09-.34-1.63-.54-.54-.19-1.07-.39-1.6-.61-.52-.22-1.05-.45-1.57-.7-.51-.24-1.02-.5-1.53-.76-.5-.27-1-.56-1.49-.85s-.98-.6-1.45-.91c-.48-.32-.95-.65-1.41-.99-.46-.33-.91-.69-1.35-1.05-.45-.36-.89-.74-1.31-1.12-.43-.39-.85-.79-1.25-1.19s-.81-.83-1.19-1.25c-.38-.43-.76-.87-1.12-1.31-.36-.44-.72-.9-1.06-1.36-.34-.45-.67-.93-.98-1.4-.32-.48-.62-.96-.92-1.45-.29-.49-.57-.99-.84-1.5-.27-.5-.52-1.01-.77-1.53-.24-.51-.47-1.04-.69-1.56-.22-.53-.43-1.07-.62-1.6-.19-.54-.37-1.08-.54-1.63-.16-.54-.32-1.1-.46-1.65-.14-.55-.26-1.11-.38-1.67-.11-.56-.21-1.13-.29-1.69-.09-.57-.16-1.14-.22-1.71-.06-.57-.1-1.15-.13-1.72-.03-.57-.04-1.15-.04-1.72s0-1.15.04-1.73c.03-.57.07-1.14.13-1.71.06-.57.13-1.14.22-1.71.08-.56.18-1.13.29-1.69.12-.56.24-1.12.38-1.67.14-.55.3-1.11.46-1.65.17-.55.35-1.09.54-1.63.19-.54.4-1.07.62-1.6.22-.52.45-1.05.69-1.57.25-.51.5-1.02.77-1.53.27-.5.55-1,.84-1.49.3-.49.6-.98.92-1.45.31-.48.64-.95.98-1.41s.7-.91,1.06-1.35c.36-.45.74-.89,1.12-1.31.38-.43.78-.85,1.19-1.25.4-.41.82-.81,1.25-1.19.42-.38.86-.76,1.31-1.12.44-.36.89-.72,1.35-1.06s.93-.67,1.41-.98c.47-.32.96-.62,1.45-.92.49-.29.99-.57,1.49-.84.51-.27,1.02-.52,1.53-.77.52-.24,1.05-.47,1.57-.69.53-.22,1.06-.43,1.6-.62.54-.19,1.08-.37,1.63-.54.54-.16,1.1-.32,1.65-.46.55-.14,1.11-.26,1.67-.38.56-.11,1.13-.21,1.69-.29.56-.09,1.14-.16,1.71-.22.56-.06,1.14-.1,1.71-.13,1.15-.06,2.31-.06,3.45,0,.57.03,1.15.07,1.72.13.57.06,1.14.13,1.71.22.56.08,1.13.18,1.69.29.55.12,1.12.24,1.67.38.55.14,1.11.3,1.65.46.54.17,1.09.35,1.63.54.53.19,1.07.4,1.59.62.53.22,1.06.45,1.57.69.51.25,1.03.5,1.53.77.5.27,1.01.55,1.49.84.49.3.98.6,1.45.92.48.31.95.64,1.41.98s.92.7,1.36,1.06c.44.36.88.74,1.31,1.12.42.38.84.78,1.25,1.19s.8.82,1.18,1.25c.39.42.77.86,1.13,1.31.36.44.71.89,1.05,1.35.34.46.67.93.99,1.41.31.47.62.96.91,1.45s.58.99.84,1.49c.27.51.53,1.02.77,1.53.25.52.48,1.05.7,1.57.21.53.42,1.06.61,1.6.2.54.38,1.08.54,1.63.17.54.32,1.1.46,1.65.14.55.27,1.11.38,1.67.12.56.22,1.13.3,1.69.09.57.16,1.14.22,1.71.05.57.1,1.14.12,1.71.03.58.05,1.16.05,1.73s-.02,1.15-.05,1.72c-.02.57-.07,1.15-.12,1.72-.06.57-.13,1.14-.22,1.71-.08.56-.18,1.13-.3,1.69-.11.56-.24,1.12-.38,1.67s-.29,1.11-.46,1.65c-.16.55-.34,1.09-.54,1.63-.19.53-.4,1.07-.61,1.6-.22.52-.45,1.05-.7,1.56-.24.52-.5,1.03-.77,1.53-.26.51-.55,1.01-.84,1.5s-.6.97-.91,1.45c-.32.47-.65.95-.99,1.4-.34.46-.69.92-1.05,1.36-.36.44-.74.88-1.13,1.31-.38.42-.78.84-1.18,1.25-.41.4-.83.8-1.25,1.19-.43.38-.87.76-1.31,1.12-.44.36-.9.72-1.36,1.05-.46.34-.93.67-1.41.99-.47.31-.96.62-1.45.91-.48.29-.99.58-1.49.85-.5.26-1.02.52-1.53.76-.51.25-1.04.48-1.57.7-.52.22-1.06.42-1.59.61-.54.2-1.09.38-1.63.54-.54.17-1.1.32-1.65.46s-1.12.27-1.67.38c-.56.12-1.13.22-1.69.3-.57.09-1.14.16-1.71.22-.57.05-1.15.1-1.72.13-.57.02-1.15.04-1.72.04Z" /><path d="M926,853c0-19.33,15.67-35,35-35h0c19.33,0,35,15.67,35,35h0c0,19.33-15.67,35-35,35h0c-19.33,0-35-15.67-35-35ZM926,737c0-19.33,15.67-35,35-35h0c19.33,0,35,15.67,35,35h0c0,19.33-15.67,35-35,35h0c-19.33,0-35-15.67-35-35ZM926,621c0-19.33,15.67-35,35-35h0c19.33,0,35,15.67,35,35h0c0,19.33-15.67,35-35,35h0c-19.33,0-35-15.67-35-35Z" /><path d="M961,540c-.57,0-1.15-.02-1.73-.04-.57-.03-1.14-.08-1.71-.13-.57-.06-1.14-.13-1.71-.22-.56-.08-1.13-.18-1.69-.3-.56-.11-1.12-.24-1.67-.38-.55-.14-1.11-.29-1.65-.46-.55-.16-1.09-.34-1.63-.54-.54-.19-1.07-.4-1.6-.61-.52-.22-1.05-.45-1.56-.7-.52-.24-1.03-.5-1.54-.76-.5-.27-1-.56-1.49-.85s-.98-.6-1.45-.91c-.47-.32-.95-.65-1.41-.99-.46-.33-.91-.69-1.35-1.05-.45-.36-.89-.74-1.31-1.12-.42-.39-.84-.79-1.25-1.19-.4-.41-.8-.83-1.19-1.25-.38-.42-.76-.86-1.12-1.31-.36-.44-.72-.9-1.06-1.36-.33-.45-.67-.93-.98-1.4-.32-.48-.62-.96-.91-1.45-.3-.49-.58-.99-.85-1.5-.26-.5-.52-1.01-.77-1.53-.24-.51-.47-1.04-.69-1.56-.22-.53-.43-1.07-.62-1.6-.19-.54-.37-1.08-.54-1.63-.16-.54-.32-1.1-.46-1.65-.14-.55-.26-1.11-.38-1.67-.11-.56-.21-1.13-.29-1.69-.09-.57-.16-1.14-.22-1.71-.06-.57-.1-1.15-.13-1.72-.03-.57-.04-1.15-.04-1.72s0-1.15.04-1.73c.03-.57.07-1.14.13-1.71.06-.57.13-1.14.22-1.71.08-.56.18-1.13.29-1.69.12-.56.24-1.12.38-1.67.14-.55.3-1.11.46-1.65.17-.55.35-1.09.54-1.63.19-.54.4-1.07.62-1.6.22-.52.45-1.05.69-1.56.25-.52.51-1.03.77-1.54.27-.5.55-1,.85-1.49.29-.49.59-.98.91-1.45.31-.47.65-.95.98-1.41.34-.45.7-.91,1.06-1.35.36-.45.74-.89,1.12-1.31.39-.42.79-.84,1.19-1.25.41-.4.83-.8,1.25-1.19.42-.38.86-.76,1.31-1.12.44-.36.89-.72,1.35-1.06.46-.33.94-.66,1.41-.98.47-.32.96-.62,1.45-.91.49-.3.99-.58,1.49-.85.51-.26,1.02-.52,1.54-.77.51-.24,1.04-.47,1.56-.69.53-.22,1.06-.42,1.6-.61.54-.2,1.08-.38,1.63-.54.54-.17,1.1-.32,1.65-.46.55-.14,1.11-.27,1.67-.38.56-.12,1.13-.22,1.69-.3.57-.09,1.14-.16,1.71-.22.57-.05,1.14-.1,1.71-.13,1.15-.05,2.31-.05,3.45,0,.57.03,1.15.08,1.72.13.57.06,1.14.13,1.71.22.56.08,1.13.18,1.69.3.56.11,1.12.24,1.67.38.55.14,1.11.29,1.65.46.54.16,1.09.34,1.63.54.53.19,1.07.39,1.59.61.53.22,1.06.45,1.57.69.51.25,1.03.51,1.53.77.5.27,1.01.55,1.49.85.49.29.98.59,1.46.91.47.32.94.65,1.4.98.46.34.92.7,1.36,1.06.44.36.88.74,1.31,1.12.42.39.84.79,1.25,1.19.4.41.8.83,1.19,1.25.38.42.76.86,1.12,1.31.36.44.71.9,1.05,1.35.34.46.67.94.99,1.41.31.47.62.96.91,1.45s.58.99.84,1.49c.27.51.53,1.02.77,1.54.25.51.48,1.04.7,1.56.21.53.42,1.06.61,1.6.2.54.38,1.08.54,1.63.17.54.32,1.1.46,1.65.14.55.27,1.11.38,1.67.12.56.22,1.13.3,1.69.09.57.16,1.14.22,1.71.05.57.1,1.14.12,1.71.03.58.05,1.16.05,1.73s-.02,1.15-.05,1.72c-.02.57-.07,1.15-.12,1.72-.06.57-.13,1.14-.22,1.71-.08.56-.18,1.13-.3,1.69-.11.56-.24,1.12-.38,1.67s-.29,1.11-.46,1.65c-.16.55-.34,1.09-.54,1.63-.19.53-.4,1.07-.61,1.6-.22.52-.45,1.05-.7,1.56-.24.52-.5,1.03-.77,1.53-.26.51-.55,1.01-.84,1.5s-.6.97-.91,1.45c-.32.47-.65.95-.99,1.4-.34.46-.69.92-1.05,1.36-.36.45-.74.89-1.12,1.31-.39.42-.79.84-1.19,1.25-.41.4-.83.8-1.25,1.19-.43.38-.87.76-1.31,1.12-.44.36-.9.72-1.36,1.05-.46.34-.93.67-1.4.99-.48.31-.97.62-1.46.91-.48.29-.99.58-1.49.85-.5.26-1.02.52-1.53.76-.51.25-1.04.48-1.57.7-.52.21-1.06.42-1.59.61-.54.2-1.09.38-1.63.54-.54.17-1.1.32-1.65.46s-1.12.27-1.67.38c-.56.12-1.13.22-1.69.3-.57.09-1.14.16-1.71.22-.57.05-1.15.1-1.72.13-.57.02-1.15.04-1.72.04Z" /><path d="M842,505c0-16.57,13.43-30,30-30h0c16.57,0,30,13.43,30,30h0c0,16.57-13.43,30-30,30h0c-16.57,0-30-13.43-30-30ZM717,505c0-16.57,13.43-30,30-30h0c16.57,0,30,13.43,30,30h0c0,16.57-13.43,30-30,30h0c-16.57,0-30-13.43-30-30ZM592,505c0-16.57,13.43-30,30-30h0c16.57,0,30,13.43,30,30h0c0,16.57-13.43,30-30,30h0c-16.57,0-30-13.43-30-30ZM467,505c0-16.57,13.43-30,30-30h0c16.57,0,30,13.43,30,30h0c0,16.57-13.43,30-30,30h0c-16.57,0-30-13.43-30-30ZM342,505c0-16.57,13.43-30,30-30h0c16.57,0,30,13.43,30,30h0c0,16.57-13.43,30-30,30h0c-16.57,0-30-13.43-30-30ZM217,505c0-16.57,13.43-30,30-30h0c16.57,0,30,13.43,30,30h0c0,16.57-13.43,30-30,30h0c-16.57,0-30-13.43-30-30ZM92,505c0-16.57,13.43-30,30-30h0c16.57,0,30,13.43,30,30h0c0,16.57-13.43,30-30,30h0c-16.57,0-30-13.43-30-30Z" /></svg>