<?xml version="1.0" encoding="UTF-8"?><svg id="a" xmlns="http://www.w3.org/2000/svg" viewBox="0 0 1000 1000"><polygon points="998 998 863 998 863 928 928 928 928 863 998 863 998 998"  /><path d="M745.9,998h-187.35v-70h187.35v70ZM441.45,998h-187.35v-70h187.35v70Z"  /><polygon points="137 998 2 998 2 863 72 863 72 928 137 928 137 998"  /><path d="M72,745.9H2v-187.35h70v187.35ZM72,441.45H2v-187.36h70v187.36Z"  /><polygon points="72 137 2 137 2 2 137 2 137 72 72 72 72 137"  /><path d="M745.9,72h-187.36V2h187.36v70ZM441.45,72h-187.35V2h187.35v70Z"  /><polygon points="998 137 928 137 928 72 863 72 863 2 998 2 998 137"  /><path d="M998,745.9h-70v-187.36h70v187.36ZM998,441.45h-70v-187.35h70v187.35Z"  /><path d="M490.48,804.39c-35.99,0-71.59-7.53-104.3-22.72-66.68-30.97-112.6-90-125.97-161.94-7.51-40.39-.95-82.91,18.46-119.73,18.66-35.39,47.93-63.7,82.43-79.71,32.35-15.01,67.3-18.42,101.07-9.86,36.84,9.34,70.19,32.02,99.1,67.41l-46.46,37.96c-37.92-46.4-84.74-61.38-128.46-41.09-48.32,22.42-77.19,80.05-67.15,134.05,9.92,53.38,42.68,95.46,92.25,118.48,56.43,26.21,124.65,22.21,182.48-10.71,56.31-32.05,96.76-84.11,113.92-146.58,17.15-62.48,8.95-127.89-23.1-184.2-31.74-55.77-82.92-95.1-144.09-110.75-60.98-15.6-125.87-6.37-182.72,26l-29.68-52.14c70.44-40.09,151.15-51.45,227.27-31.98,77.09,19.72,141.5,69.15,181.36,139.2,39.98,70.23,50.21,151.83,28.81,229.76-21.4,77.93-71.86,142.87-142.09,182.84-41.66,23.71-87.71,35.7-133.13,35.71Z"  /></svg>