<?xml version="1.0" encoding="UTF-8"?><svg id="a" xmlns="http://www.w3.org/2000/svg" viewBox="0 0 1000 1000"><polygon points="1003 1002 868 1002 868 932 933 932 933 867 1003 867 1003 1002"  /><path d="M750.9,1002h-187.35v-70h187.35v70ZM446.45,1002h-187.36v-70h187.36v70Z"  /><polygon points="142 1002 7 1002 7 867 77 867 77 932 142 932 142 1002"  /><path d="M77,749.9H7v-187.35h70v187.35ZM77,445.45H7v-187.36h70v187.36Z"  /><polygon points="77 141 7 141 7 6 142 6 142 76 77 76 77 141"  /><path d="M750.9,76h-187.36V6h187.36v70ZM446.45,76h-187.35V6h187.35v70Z"  /><polygon points="1003 141 933 141 933 76 868 76 868 6 1003 6 1003 141"  /><path d="M1003,749.9h-70v-187.36h70v187.36ZM1003,445.45h-70v-187.35h70v187.35Z"  /><rect x="470" y="650.38" width="60" height="129.62"  /><rect x="470" y="228" width="60" height="134.21"  /><rect x="224" y="470" width="133" height="60"  /><rect x="645.03" y="470" width="130.97" height="60"  /><path d="M500.5,678c-95.67,0-173.5-77.83-173.5-173.5s77.83-173.5,173.5-173.5,173.5,77.83,173.5,173.5-77.83,173.5-173.5,173.5ZM500.5,391c-62.58,0-113.5,50.92-113.5,113.5s50.92,113.5,113.5,113.5,113.5-50.92,113.5-113.5-50.92-113.5-113.5-113.5Z"  /></svg>