<?xml version="1.0" encoding="UTF-8"?><svg id="k" xmlns="http://www.w3.org/2000/svg" viewBox="0 0 1000 1000"><path d="M1002,998H6V2h996v996ZM76,928h856V72H76v856Z" /><path d="M602,881c0-16.57,13.43-30,30-30h0c16.57,0,30,13.43,30,30h0c0,16.57-13.43,30-30,30h0c-16.57,0-30-13.43-30-30ZM602,756c0-16.57,13.43-30,30-30h0c16.57,0,30,13.43,30,30h0c0,16.57-13.43,30-30,30h0c-16.57,0-30-13.43-30-30ZM602,631c0-16.57,13.43-30,30-30h0c16.57,0,30,13.43,30,30h0c0,16.57-13.43,30-30,30h0c-16.57,0-30-13.43-30-30ZM602,506c0-16.57,13.43-30,30-30h0c16.57,0,30,13.43,30,30h0c0,16.57-13.43,30-30,30h0c-16.57,0-30-13.43-30-30ZM602,381c0-16.57,13.43-30,30-30h0c16.57,0,30,13.43,30,30h0c0,16.57-13.43,30-30,30h0c-16.57,0-30-13.43-30-30ZM602,256c0-16.57,13.43-30,30-30h0c16.57,0,30,13.43,30,30h0c0,16.57-13.43,30-30,30h0c-16.57,0-30-13.43-30-30ZM602,131c0-16.57,13.43-30,30-30h0c16.57,0,30,13.43,30,30h0c0,16.57-13.43,30-30,30h0c-16.57,0-30-13.43-30-30Z" /><path d="M851,381c0-16.57,13.43-30,30-30h0c16.57,0,30,13.43,30,30h0c0,16.57-13.43,30-30,30h0c-16.57,0-30-13.43-30-30ZM726,381c0-16.57,13.43-30,30-30h0c16.57,0,30,13.43,30,30h0c0,16.57-13.43,30-30,30h0c-16.57,0-30-13.43-30-30ZM601,381c0-16.57,13.43-30,30-30h0c16.57,0,30,13.43,30,30h0c0,16.57-13.43,30-30,30h0c-16.57,0-30-13.43-30-30ZM476,381c0-16.57,13.43-30,30-30h0c16.57,0,30,13.43,30,30h0c0,16.57-13.43,30-30,30h0c-16.57,0-30-13.43-30-30ZM351,381c0-16.57,13.43-30,30-30h0c16.57,0,30,13.43,30,30h0c0,16.57-13.43,30-30,30h0c-16.57,0-30-13.43-30-30ZM226,381c0-16.57,13.43-30,30-30h0c16.57,0,30,13.43,30,30h0c0,16.57-13.43,30-30,30h0c-16.57,0-30-13.43-30-30ZM101,381c0-16.57,13.43-30,30-30h0c16.57,0,30,13.43,30,30h0c0,16.57-13.43,30-30,30h0c-16.57,0-30-13.43-30-30Z" /></svg>