<?xml version="1.0" encoding="UTF-8"?><svg id="a" xmlns="http://www.w3.org/2000/svg" viewBox="0 0 1000 1000"><polygon points="999 999 869 999 869 939 939 939 939 869 999 869 999 999"  /><path d="M749.97,999h-190.45v-60h190.45v60ZM440.48,999h-190.45v-60h190.45v60Z"  /><polygon points="131 999 1 999 1 869 61 869 61 939 131 939 131 999"  /><path d="M61,749.97H1v-190.45h60v190.45ZM61,440.48H1v-190.45h60v190.45Z"  /><polygon points="61 131 1 131 1 1 131 1 131 61 61 61 61 131"  /><path d="M749.97,61h-190.45V1h190.45v60ZM440.48,61h-190.45V1h190.45v60Z"  /><polygon points="999 131 939 131 939 61 869 61 869 1 999 1 999 131"  /><path d="M999,749.97h-60v-190.45h60v190.45ZM999,440.48h-60v-190.45h60v190.45Z"  /><path d="M619,649c0-16.57,13.43-30,30-30h0c16.57,0,30,13.43,30,30h0c0,16.57-13.43,30-30,30h0c-16.57,0-30-13.43-30-30ZM519,649c0-16.57,13.43-30,30-30h0c16.57,0,30,13.43,30,30h0c0,16.57-13.43,30-30,30h0c-16.57,0-30-13.43-30-30ZM419,649c0-16.57,13.43-30,30-30h0c16.57,0,30,13.43,30,30h0c0,16.57-13.43,30-30,30h0c-16.57,0-30-13.43-30-30ZM321,647c0-16.57,13.43-30,30-30h0c16.57,0,30,13.43,30,30h0c0,16.57-13.43,30-30,30h0c-16.57,0-30-13.43-30-30ZM619,557c0-16.57,13.43-30,30-30h0c16.57,0,30,13.43,30,30h0c0,16.57-13.43,30-30,30h0c-16.57,0-30-13.43-30-30ZM321,547c0-16.57,13.43-30,30-30h0c16.57,0,30,13.43,30,30h0c0,16.57-13.43,30-30,30h0c-16.57,0-30-13.43-30-30ZM619,457c0-16.57,13.43-30,30-30h0c16.57,0,30,13.43,30,30h0c0,16.57-13.43,30-30,30h0c-16.57,0-30-13.43-30-30ZM321,447c0-16.57,13.43-30,30-30h0c16.57,0,30,13.43,30,30h0c0,16.57-13.43,30-30,30h0c-16.57,0-30-13.43-30-30ZM619,357c0-16.57,13.43-30,30-30h0c16.57,0,30,13.43,30,30h0c0,16.57-13.43,30-30,30h0c-16.57,0-30-13.43-30-30ZM525,351c0-16.57,13.43-30,30-30h0c16.57,0,30,13.43,30,30h0c0,16.57-13.43,30-30,30h0c-16.57,0-30-13.43-30-30ZM425,351c0-16.57,13.43-30,30-30h0c16.57,0,30,13.43,30,30h0c0,16.57-13.43,30-30,30h0c-16.57,0-30-13.43-30-30ZM325,351c0-16.57,13.43-30,30-30h0c16.57,0,30,13.43,30,30h0c0,16.57-13.43,30-30,30h0c-16.57,0-30-13.43-30-30Z"  /><path d="M212.23,816.23c-7.68,0-15.36-2.93-21.21-8.79-5.86-5.86-8.79-13.54-8.79-21.21s2.93-15.36,8.79-21.21l143-143c11.71-11.72,30.71-11.72,42.43,0,5.86,5.86,8.79,13.54,8.79,21.21s-2.93,15.36-8.79,21.21l-143,143c-5.86,5.86-13.54,8.79-21.21,8.79Z"  /><rect x="167.54" y="772.47" width="185.2" height="60"  /><rect x="166.53" y="647" width="60" height="185.46"  /><path d="M646.55,387.47c-7.68,0-15.36-2.93-21.21-8.79-5.86-5.86-8.79-13.54-8.79-21.21s2.93-15.36,8.79-21.21l143-143c11.71-11.72,30.71-11.72,42.43,0,5.86,5.86,8.79,13.54,8.79,21.21s-2.93,15.36-8.79,21.21l-143,143c-5.86,5.86-13.54,8.79-21.21,8.79Z"  /><rect x="649.04" y="168.23" width="185.2" height="60"  /><rect x="775.25" y="168.24" width="60" height="185.46"  /><path d="M186.01,211.69c0-7.68,2.93-15.36,8.79-21.21,5.86-5.86,13.54-8.79,21.21-8.79s15.36,2.93,21.21,8.79l143,143c11.72,11.71,11.72,30.71,0,42.43-5.86,5.86-13.54,8.79-21.21,8.79s-15.36-2.93-21.21-8.79l-143-143c-5.86-5.86-8.79-13.54-8.79-21.21Z"  /><rect x="169.77" y="167" width="60" height="185.2"  /><rect x="169.78" y="165.99" width="185.46" height="60"  /><path d="M614.77,646.01c0-7.68,2.93-15.36,8.79-21.21,5.86-5.86,13.54-8.79,21.21-8.79s15.36,2.93,21.21,8.79l143,143c11.72,11.71,11.72,30.71,0,42.43-5.86,5.86-13.54,8.79-21.21,8.79s-15.36-2.93-21.21-8.79l-143-143c-5.86-5.86-8.79-13.54-8.79-21.21Z"  /><rect x="774.01" y="648.5" width="60" height="185.2"  /><rect x="648.54" y="774.71" width="185.46" height="60"  /></svg>