<?xml version="1.0" encoding="UTF-8"?><svg id="a" xmlns="http://www.w3.org/2000/svg" viewBox="0 0 1000 1000"><path d="M969,999c-.49,0-.99-.01-1.48-.04-.49-.02-.98-.06-1.47-.11s-.98-.11-1.46-.18c-.49-.07-.97-.16-1.45-.26-.48-.09-.96-.2-1.44-.32-.47-.12-.95-.25-1.41-.4-.47-.14-.94-.29-1.4-.46-.45-.16-.92-.34-1.37-.53-.45-.18-.9-.38-1.34-.59-.44-.21-.88-.43-1.31-.66-.43-.23-.86-.47-1.28-.72s-.84-.52-1.24-.79c-.41-.27-.82-.55-1.21-.84s-.78-.59-1.16-.9c-.38-.31-.76-.64-1.12-.97-.37-.32-.73-.67-1.07-1.02-.35-.34-.69-.7-1.02-1.07-.33-.36-.65-.74-.96-1.12-.31-.37-.62-.77-.91-1.16-.29-.39-.57-.8-.84-1.21-.27-.4-.54-.82-.79-1.24-.25-.42-.49-.85-.72-1.28-.23-.43-.45-.87-.66-1.31-.2-.44-.4-.89-.59-1.34s-.37-.92-.53-1.37c-.17-.46-.32-.93-.46-1.4-.15-.46-.28-.94-.4-1.41-.12-.48-.23-.96-.32-1.44-.1-.48-.19-.96-.26-1.45-.07-.48-.13-.97-.18-1.46-.05-.49-.09-.98-.11-1.47-.03-.49-.04-.99-.04-1.48s0-.99.04-1.48c.02-.49.06-.98.11-1.47.05-.49.11-.98.18-1.46.07-.48.16-.97.26-1.45.09-.48.2-.96.32-1.44.12-.47.25-.94.4-1.41.14-.47.29-.94.46-1.39.16-.46.34-.92.53-1.37.18-.45.38-.91.59-1.35s.43-.88.66-1.31c.23-.43.47-.86.72-1.28s.52-.84.79-1.24c.27-.41.55-.81.84-1.21.29-.39.6-.78.9-1.16.32-.38.64-.76.97-1.12.33-.36.67-.73,1.02-1.07.34-.35.7-.69,1.07-1.02.36-.33.74-.65,1.12-.96.38-.31.77-.62,1.16-.91s.8-.57,1.21-.84c.4-.27.82-.54,1.24-.79.42-.24.85-.49,1.28-.72.43-.23.87-.45,1.31-.66.44-.2.89-.4,1.34-.59.45-.19.92-.36,1.37-.53.46-.16.93-.32,1.4-.46.46-.14.94-.28,1.41-.4.48-.12.96-.23,1.44-.32.48-.1.96-.18,1.45-.26.48-.07.97-.13,1.46-.18.49-.05.98-.09,1.47-.11.98-.05,1.98-.05,2.96,0,.49.02.98.06,1.47.11.49.05.98.11,1.46.18.48.08.97.16,1.45.26.48.09.96.2,1.43.32.48.12.95.26,1.42.4.47.14.93.3,1.39.46.46.17.92.34,1.37.53.45.19.9.39,1.35.59.44.21.88.43,1.31.66.43.23.86.48,1.28.72.42.25.84.52,1.24.79.41.27.81.55,1.21.84.39.29.78.6,1.16.91.38.31.76.63,1.12.96s.73.67,1.07,1.02c.35.34.69.71,1.02,1.07.33.36.65.74.96,1.12.31.38.62.77.91,1.16.29.4.57.8.84,1.21.27.4.54.82.79,1.24s.49.85.72,1.28c.23.43.45.87.66,1.31.2.44.4.9.59,1.35.19.45.37.91.53,1.37.16.45.32.92.46,1.39.14.47.28.94.4,1.41.12.48.23.96.32,1.44.1.48.18.97.26,1.45.07.48.13.97.18,1.46s.09.98.11,1.47c.03.49.04.99.04,1.48s0,.99-.04,1.48c-.02.49-.06.98-.11,1.47-.05.49-.11.98-.18,1.46-.08.49-.16.97-.26,1.45-.09.48-.2.96-.32,1.44-.12.47-.26.95-.4,1.41-.14.47-.3.94-.46,1.4-.16.45-.34.92-.53,1.37-.19.45-.39.9-.59,1.34-.21.44-.43.88-.66,1.31-.23.43-.47.86-.72,1.28-.25.42-.52.84-.79,1.24-.27.41-.55.82-.84,1.21-.29.39-.6.79-.91,1.16-.31.38-.63.76-.96,1.12-.33.37-.67.73-1.02,1.07-.34.35-.71.7-1.07,1.02-.36.33-.74.66-1.12.97-.38.31-.77.61-1.16.9-.4.29-.8.57-1.21.84-.4.27-.82.54-1.24.79s-.85.49-1.28.72c-.43.23-.87.45-1.31.66-.45.21-.9.41-1.35.59-.45.19-.91.37-1.37.53-.46.17-.92.32-1.39.46-.47.15-.94.28-1.42.4-.47.12-.95.23-1.43.32-.48.1-.97.19-1.45.26-.48.07-.97.13-1.46.18-.49.05-.98.09-1.47.11-.49.03-.99.04-1.48.04Z"  /><path d="M821.75,969c0-16.57,13.43-30,30-30h0c16.57,0,30,13.43,30,30h0c0,16.57-13.43,30-30,30h0c-16.57,0-30-13.43-30-30ZM704.5,969c0-16.57,13.43-30,30-30h0c16.57,0,30,13.43,30,30h0c0,16.57-13.43,30-30,30h0c-16.57,0-30-13.43-30-30ZM587.25,969c0-16.57,13.43-30,30-30h0c16.57,0,30,13.43,30,30h0c0,16.57-13.43,30-30,30h0c-16.57,0-30-13.43-30-30ZM470,969c0-16.57,13.43-30,30-30h0c16.57,0,30,13.43,30,30h0c0,16.57-13.43,30-30,30h0c-16.57,0-30-13.43-30-30ZM352.75,969c0-16.57,13.43-30,30-30h0c16.57,0,30,13.43,30,30h0c0,16.57-13.43,30-30,30h0c-16.57,0-30-13.43-30-30ZM235.5,969c0-16.57,13.43-30,30-30h0c16.57,0,30,13.43,30,30h0c0,16.57-13.43,30-30,30h0c-16.57,0-30-13.43-30-30ZM118.25,969c0-16.57,13.43-30,30-30h0c16.57,0,30,13.43,30,30h0c0,16.57-13.43,30-30,30h0c-16.57,0-30-13.43-30-30Z"  /><path d="M31,999c-.49,0-.99-.01-1.48-.04-.49-.02-.98-.06-1.47-.11s-.98-.11-1.46-.18c-.48-.07-.97-.16-1.45-.26-.48-.09-.96-.2-1.44-.32-.47-.12-.94-.25-1.41-.4-.47-.14-.94-.29-1.39-.46-.46-.16-.92-.34-1.37-.53-.45-.18-.91-.38-1.35-.59-.44-.21-.88-.43-1.31-.66-.43-.23-.86-.47-1.28-.72s-.84-.52-1.24-.79c-.41-.27-.82-.55-1.21-.84s-.78-.59-1.16-.9c-.38-.31-.76-.64-1.12-.97-.37-.32-.73-.67-1.07-1.02-.35-.34-.69-.7-1.02-1.07-.33-.36-.65-.74-.96-1.12-.31-.37-.62-.77-.91-1.16-.29-.39-.57-.8-.84-1.21-.27-.4-.54-.82-.79-1.24-.25-.42-.49-.85-.72-1.28-.23-.43-.45-.87-.66-1.31-.2-.44-.4-.89-.59-1.34s-.36-.92-.53-1.37c-.16-.46-.32-.93-.46-1.4-.14-.46-.28-.94-.4-1.41-.12-.48-.22-.96-.32-1.44-.1-.48-.18-.96-.26-1.45-.07-.48-.13-.97-.18-1.46-.05-.49-.09-.98-.11-1.47-.03-.49-.04-.99-.04-1.48s0-.99.04-1.48c.02-.49.06-.98.11-1.47.05-.49.11-.98.18-1.46.08-.48.16-.97.26-1.45.09-.48.2-.96.32-1.44.12-.47.25-.94.4-1.41.14-.47.3-.94.46-1.39.16-.46.34-.92.53-1.37.18-.45.38-.91.59-1.35s.43-.88.66-1.31c.23-.43.47-.86.72-1.28s.52-.84.79-1.24c.27-.41.55-.81.84-1.21.29-.39.59-.78.9-1.16s.64-.76.97-1.12c.33-.36.67-.73,1.01-1.07s.71-.69,1.08-1.02c.36-.33.74-.65,1.12-.96.37-.31.77-.62,1.16-.91s.8-.57,1.21-.84c.4-.27.82-.54,1.24-.79.42-.24.85-.49,1.28-.72.43-.23.87-.45,1.31-.66.44-.2.89-.4,1.34-.59.45-.19.92-.36,1.37-.53.46-.16.93-.32,1.4-.46.46-.14.94-.28,1.41-.4.48-.12.96-.23,1.44-.32.48-.1.97-.18,1.45-.26.48-.07.97-.13,1.46-.18.49-.05.98-.09,1.47-.11.98-.05,1.98-.05,2.96,0,.49.02.98.06,1.47.11.49.05.98.11,1.46.18.49.08.97.16,1.45.26.48.09.96.2,1.44.32.47.12.94.26,1.41.4.47.14.94.3,1.4.46.45.17.91.34,1.37.53.45.19.9.39,1.34.59.44.21.88.43,1.31.66.43.23.86.48,1.28.72.42.25.84.52,1.24.79.41.27.82.55,1.21.84.39.29.79.6,1.16.91.38.31.76.63,1.12.96.37.33.73.67,1.07,1.02.35.34.69.71,1.02,1.07.33.36.66.74.97,1.12.31.38.61.77.9,1.16.29.4.57.8.84,1.21.27.4.54.82.79,1.24s.49.85.72,1.28c.23.43.45.87.66,1.31.2.44.41.9.59,1.35.19.45.36.91.53,1.37.16.45.32.92.46,1.39.14.47.28.94.4,1.41.12.48.22.96.32,1.44.1.48.18.97.26,1.45.07.48.13.97.18,1.46s.09.98.11,1.47c.03.49.04.99.04,1.48s0,.99-.04,1.48c-.02.49-.06.98-.11,1.47-.05.49-.11.98-.18,1.46-.08.49-.16.97-.26,1.45-.1.48-.21.96-.32,1.44-.12.47-.26.95-.4,1.41-.14.47-.3.94-.46,1.4-.17.45-.34.92-.53,1.37-.19.45-.39.9-.59,1.34-.21.44-.43.88-.66,1.31-.23.43-.48.86-.72,1.28-.25.42-.52.84-.79,1.24-.27.41-.55.82-.84,1.21-.29.39-.6.79-.91,1.16-.31.38-.63.76-.96,1.12-.33.37-.67.73-1.02,1.07-.35.35-.71.7-1.07,1.02-.36.33-.74.66-1.12.97-.38.31-.77.61-1.16.9-.4.29-.8.57-1.21.84-.4.27-.82.54-1.24.79s-.85.49-1.28.72c-.43.23-.87.45-1.31.66-.44.21-.9.41-1.35.59-.45.19-.91.37-1.37.53-.45.17-.92.32-1.39.46-.47.15-.94.28-1.41.4-.48.12-.96.23-1.44.32-.48.1-.96.19-1.45.26-.48.07-.97.13-1.46.18-.49.05-.98.09-1.47.11-.49.03-.99.04-1.48.04Z"  /><path d="M1,851.75c0-16.57,13.43-30,30-30h0c16.57,0,30,13.43,30,30h0c0,16.57-13.43,30-30,30h0c-16.57,0-30-13.43-30-30ZM1,734.5c0-16.57,13.43-30,30-30h0c16.57,0,30,13.43,30,30h0c0,16.57-13.43,30-30,30h0c-16.57,0-30-13.43-30-30ZM1,617.25c0-16.57,13.43-30,30-30h0c16.57,0,30,13.43,30,30h0c0,16.57-13.43,30-30,30h0c-16.57,0-30-13.43-30-30ZM1,500c0-16.57,13.43-30,30-30h0c16.57,0,30,13.43,30,30h0c0,16.57-13.43,30-30,30h0c-16.57,0-30-13.43-30-30ZM1,382.75c0-16.57,13.43-30,30-30h0c16.57,0,30,13.43,30,30h0c0,16.57-13.43,30-30,30h0c-16.57,0-30-13.43-30-30ZM1,265.5c0-16.57,13.43-30,30-30h0c16.57,0,30,13.43,30,30h0c0,16.57-13.43,30-30,30h0c-16.57,0-30-13.43-30-30ZM1,148.25c0-16.57,13.43-30,30-30h0c16.57,0,30,13.43,30,30h0c0,16.57-13.43,30-30,30h0c-16.57,0-30-13.43-30-30Z"  /><path d="M31,61c-.49,0-.99,0-1.48-.04-.49-.02-.98-.06-1.47-.11s-.98-.11-1.46-.18c-.48-.07-.97-.16-1.45-.26-.48-.09-.96-.2-1.43-.32-.48-.12-.95-.25-1.42-.4-.47-.14-.93-.29-1.39-.46-.46-.16-.92-.34-1.37-.53-.45-.18-.91-.38-1.35-.59-.44-.21-.88-.43-1.31-.66-.43-.23-.86-.47-1.28-.72s-.84-.52-1.24-.79c-.41-.27-.82-.55-1.21-.84s-.78-.6-1.16-.9c-.38-.32-.76-.64-1.12-.97-.37-.33-.73-.67-1.07-1.02-.35-.34-.69-.7-1.02-1.07-.33-.36-.65-.74-.96-1.12-.31-.38-.62-.77-.91-1.16-.29-.39-.57-.8-.84-1.21-.27-.4-.54-.82-.79-1.24s-.49-.85-.72-1.28c-.23-.43-.45-.87-.66-1.31-.2-.44-.41-.9-.59-1.35-.19-.45-.37-.91-.53-1.37-.16-.45-.32-.92-.46-1.39-.15-.47-.28-.94-.4-1.42-.12-.47-.23-.95-.32-1.43-.1-.48-.19-.97-.26-1.45-.07-.48-.13-.97-.18-1.46-.05-.49-.09-.98-.11-1.47-.03-.49-.04-.99-.04-1.48s0-.99.04-1.48c.02-.49.06-.98.11-1.47.05-.49.11-.98.18-1.46.07-.48.16-.97.26-1.45.09-.48.2-.96.32-1.44.12-.47.25-.94.4-1.41.14-.47.29-.94.46-1.39.16-.46.34-.92.53-1.37.18-.45.38-.91.59-1.35.21-.44.43-.88.66-1.31.23-.43.47-.86.72-1.28s.52-.84.79-1.24c.27-.41.55-.82.84-1.21s.6-.78.9-1.16c.31-.38.64-.76.97-1.12.33-.37.67-.73,1.02-1.07.34-.35.7-.69,1.07-1.02.36-.33.74-.65,1.12-.97.38-.3.77-.61,1.16-.9s.8-.57,1.21-.84c.4-.27.82-.54,1.24-.79s.85-.49,1.28-.72c.43-.23.87-.45,1.31-.66.44-.2.89-.4,1.34-.59.46-.19.92-.37,1.38-.53.45-.17.92-.32,1.39-.46.47-.15.94-.28,1.41-.4.48-.12.96-.23,1.44-.32.48-.1.97-.19,1.45-.26.48-.07.97-.13,1.46-.18.49-.05.98-.09,1.47-.11.98-.05,1.98-.05,2.96,0,.49.02.98.06,1.47.11.49.05.98.11,1.46.18.49.07.97.16,1.45.26.48.09.96.2,1.44.32.47.12.94.25,1.41.4.47.14.94.29,1.4.46.45.16.91.34,1.37.53.45.19.9.39,1.34.59.44.21.88.43,1.31.66.43.23.86.47,1.28.72s.84.52,1.24.79c.41.27.82.55,1.21.84.39.29.79.6,1.16.9.38.32.76.64,1.12.97.37.33.73.67,1.07,1.02.35.34.69.7,1.02,1.07.33.36.66.74.97,1.12.3.38.61.77.9,1.16s.57.8.84,1.21c.27.4.54.82.79,1.24s.49.85.72,1.28c.23.43.45.87.66,1.31.2.44.4.9.59,1.35.19.45.36.91.53,1.37.16.45.32.92.46,1.39.14.47.28.94.4,1.41.12.48.22.96.32,1.44.1.48.18.97.26,1.45.07.48.13.97.18,1.46s.09.98.11,1.47c.03.49.04.99.04,1.48s0,.99-.04,1.48c-.02.49-.06.98-.11,1.47-.05.49-.11.98-.18,1.46-.08.48-.16.97-.26,1.45-.1.48-.2.96-.32,1.43-.12.48-.26.95-.4,1.42-.14.47-.3.94-.46,1.39-.17.46-.34.92-.53,1.37-.19.45-.39.91-.59,1.35-.21.44-.43.88-.66,1.31-.23.43-.47.86-.72,1.28s-.52.84-.79,1.24c-.27.41-.55.82-.84,1.21-.29.39-.6.78-.91,1.16-.31.38-.63.76-.96,1.12-.33.37-.67.73-1.02,1.07-.35.35-.71.69-1.07,1.02s-.74.65-1.12.97c-.38.3-.77.61-1.16.9-.39.29-.8.57-1.21.84-.4.27-.82.54-1.24.79s-.85.49-1.28.72c-.43.23-.87.45-1.31.66-.44.21-.9.41-1.35.59-.45.19-.91.37-1.36.53-.46.17-.93.32-1.4.46-.47.15-.94.28-1.41.4-.48.12-.96.23-1.44.32-.48.1-.96.19-1.45.26-.48.07-.97.13-1.46.18-.49.05-.98.09-1.47.11-.49.03-.99.04-1.48.04Z"  /><path d="M821.75,31c0-16.57,13.43-30,30-30h0c16.57,0,30,13.43,30,30h0c0,16.57-13.43,30-30,30h0c-16.57,0-30-13.43-30-30ZM704.5,31c0-16.57,13.43-30,30-30h0c16.57,0,30,13.43,30,30h0c0,16.57-13.43,30-30,30h0c-16.57,0-30-13.43-30-30ZM587.25,31c0-16.57,13.43-30,30-30h0c16.57,0,30,13.43,30,30h0c0,16.57-13.43,30-30,30h0c-16.57,0-30-13.43-30-30ZM470,31c0-16.57,13.43-30,30-30h0c16.57,0,30,13.43,30,30h0c0,16.57-13.43,30-30,30h0c-16.57,0-30-13.43-30-30ZM352.75,31c0-16.57,13.43-30,30-30h0c16.57,0,30,13.43,30,30h0c0,16.57-13.43,30-30,30h0c-16.57,0-30-13.43-30-30ZM235.5,31c0-16.57,13.43-30,30-30h0c16.57,0,30,13.43,30,30h0c0,16.57-13.43,30-30,30h0c-16.57,0-30-13.43-30-30ZM118.25,31c0-16.57,13.43-30,30-30h0c16.57,0,30,13.43,30,30h0c0,16.57-13.43,30-30,30h0c-16.57,0-30-13.43-30-30Z"  /><path d="M969,61c-.49,0-.99,0-1.48-.04-.49-.02-.98-.06-1.47-.11s-.98-.11-1.46-.18c-.48-.07-.97-.16-1.45-.26-.48-.09-.96-.2-1.44-.32-.47-.12-.94-.25-1.41-.4-.47-.14-.94-.29-1.39-.46-.46-.16-.92-.34-1.37-.53-.45-.18-.91-.38-1.35-.59-.44-.21-.88-.43-1.31-.66-.43-.23-.86-.47-1.28-.72s-.84-.52-1.24-.79c-.41-.27-.81-.55-1.21-.84-.39-.29-.78-.6-1.16-.9-.38-.32-.76-.64-1.12-.97-.36-.33-.73-.67-1.07-1.02-.35-.34-.69-.7-1.02-1.07-.33-.36-.65-.74-.96-1.12-.31-.38-.62-.77-.91-1.16-.29-.39-.57-.8-.84-1.21-.27-.4-.54-.82-.79-1.24s-.49-.85-.72-1.28c-.23-.43-.45-.87-.66-1.31-.21-.44-.41-.9-.59-1.35-.19-.45-.37-.91-.53-1.37-.17-.45-.32-.92-.46-1.39-.15-.47-.28-.94-.4-1.42-.12-.47-.23-.95-.32-1.43-.1-.48-.19-.97-.26-1.45-.07-.48-.13-.97-.18-1.46-.05-.49-.09-.98-.11-1.47-.03-.49-.04-.99-.04-1.48s0-.99.04-1.48c.02-.49.06-.98.11-1.47.05-.49.11-.98.18-1.46.07-.48.16-.97.26-1.45.09-.48.2-.96.32-1.44.12-.47.25-.94.4-1.41.14-.47.29-.94.46-1.39.16-.46.34-.92.53-1.37.18-.45.38-.91.59-1.35.21-.44.43-.88.66-1.31.23-.43.47-.86.72-1.28s.52-.84.79-1.24c.27-.41.55-.82.84-1.21s.6-.78.9-1.16c.32-.38.64-.76.97-1.12.33-.37.67-.73,1.02-1.07.34-.35.7-.69,1.07-1.02.36-.33.74-.65,1.12-.97.38-.3.77-.61,1.16-.9s.8-.57,1.21-.84c.4-.27.82-.54,1.24-.79s.85-.49,1.28-.72c.43-.23.87-.45,1.31-.66.44-.2.9-.4,1.35-.59.45-.19.91-.37,1.37-.53.45-.17.92-.32,1.39-.46.47-.15.94-.28,1.41-.4.48-.12.96-.23,1.44-.32.48-.1.97-.19,1.45-.26.48-.07.97-.13,1.46-.18.49-.05.98-.09,1.47-.11.98-.05,1.98-.05,2.96,0,.49.02.98.06,1.47.11.49.05.98.11,1.46.18.48.07.97.16,1.45.26.48.09.96.2,1.43.32.48.12.95.25,1.42.4.47.14.94.29,1.39.46.46.16.92.34,1.37.53s.91.39,1.35.59c.44.21.88.43,1.31.66.43.23.86.47,1.28.72s.84.52,1.24.79c.41.27.82.55,1.21.84.39.29.78.6,1.16.9.38.32.76.64,1.12.97.37.33.73.67,1.07,1.02.35.34.69.7,1.02,1.07.33.36.66.74.97,1.12.3.38.61.77.9,1.16s.57.8.84,1.21c.27.4.54.82.79,1.24s.49.85.72,1.28c.23.43.45.87.66,1.31.21.44.41.9.59,1.35.19.45.37.91.53,1.37.17.45.32.92.46,1.39.15.47.28.94.4,1.41.12.48.23.96.32,1.44.1.48.19.97.26,1.45.07.48.13.97.18,1.46s.09.98.11,1.47c.03.49.04.99.04,1.48s0,.99-.04,1.48c-.02.49-.06.98-.11,1.47-.05.49-.11.98-.18,1.46-.07.48-.16.97-.26,1.45-.09.48-.2.96-.32,1.43-.12.48-.26.95-.4,1.42-.14.47-.29.94-.46,1.39-.16.46-.34.92-.53,1.37-.19.45-.39.91-.59,1.35-.21.44-.43.88-.66,1.31-.23.43-.47.86-.72,1.28s-.52.84-.79,1.24c-.27.41-.55.82-.84,1.21-.29.39-.6.78-.9,1.16-.32.38-.64.76-.97,1.12-.33.37-.67.73-1.02,1.07-.34.35-.7.69-1.07,1.02-.36.33-.74.65-1.12.97-.38.3-.77.61-1.16.9-.39.29-.8.57-1.21.84-.4.27-.82.54-1.24.79s-.85.49-1.28.72c-.43.23-.87.45-1.31.66-.44.21-.9.41-1.35.59-.45.19-.91.37-1.37.53-.45.17-.92.32-1.39.46-.47.15-.94.28-1.42.4-.47.12-.95.23-1.43.32-.48.1-.97.19-1.45.26-.48.07-.97.13-1.46.18-.49.05-.98.09-1.47.11-.49.03-.99.04-1.48.04Z"  /><path d="M939,851.75c0-16.57,13.43-30,30-30h0c16.57,0,30,13.43,30,30h0c0,16.57-13.43,30-30,30h0c-16.57,0-30-13.43-30-30ZM939,734.5c0-16.57,13.43-30,30-30h0c16.57,0,30,13.43,30,30h0c0,16.57-13.43,30-30,30h0c-16.57,0-30-13.43-30-30ZM939,617.25c0-16.57,13.43-30,30-30h0c16.57,0,30,13.43,30,30h0c0,16.57-13.43,30-30,30h0c-16.57,0-30-13.43-30-30ZM939,500c0-16.57,13.43-30,30-30h0c16.57,0,30,13.43,30,30h0c0,16.57-13.43,30-30,30h0c-16.57,0-30-13.43-30-30ZM939,382.75c0-16.57,13.43-30,30-30h0c16.57,0,30,13.43,30,30h0c0,16.57-13.43,30-30,30h0c-16.57,0-30-13.43-30-30ZM939,265.5c0-16.57,13.43-30,30-30h0c16.57,0,30,13.43,30,30h0c0,16.57-13.43,30-30,30h0c-16.57,0-30-13.43-30-30ZM939,148.25c0-16.57,13.43-30,30-30h0c16.57,0,30,13.43,30,30h0c0,16.57-13.43,30-30,30h0c-16.57,0-30-13.43-30-30Z"  /><polygon points="679 679 599 679 599 619 619 619 619 599 679 599 679 679"  /><rect x="452.86" y="619" width="94.29" height="60"  /><polygon points="401 679 321 679 321 599 381 599 381 619 401 619 401 679"  /><rect x="321" y="452.86" width="60" height="94.29"  /><polygon points="381 401 321 401 321 321 401 321 401 381 381 381 381 401"  /><rect x="452.86" y="321" width="94.29" height="60"  /><polygon points="679 401 619 401 619 381 599 381 599 321 679 321 679 401"  /><rect x="619" y="452.86" width="60" height="94.29"  /><path d="M36.5,993.5c-7.68,0-15.35-2.93-21.21-8.79-5.86-5.86-8.79-13.54-8.79-21.21s2.93-15.36,8.79-21.21l234.04-234.04c11.71-11.72,30.71-11.72,42.43,0,5.86,5.86,8.79,13.54,8.79,21.21s-2.93,15.36-8.79,21.21l-234.04,234.04c-5.86,5.86-13.54,8.79-21.21,8.79Z"  /><rect x="130.02" y="683.21" width="185.2" height="60"  /><rect x="256.24" y="683.23" width="60" height="185.46"  /><path d="M730.24,301.24c-7.68,0-15.35-2.93-21.21-8.79-5.86-5.86-8.79-13.54-8.79-21.21s2.93-15.36,8.79-21.21L942.53,16.53c11.71-11.72,30.71-11.72,42.43,0,5.86,5.86,8.79,13.54,8.79,21.21s-2.93,15.36-8.79,21.21l-233.5,233.5c-5.86,5.86-13.54,8.79-21.21,8.79Z"  /><rect x="685.55" y="257.48" width="185.2" height="60"  /><rect x="684.54" y="132.01" width="60" height="185.46"  /><path d="M271.28,300.04c-7.68,0-15.35-2.93-21.21-8.79L16.03,57.21c-5.86-5.86-8.79-13.54-8.79-21.21s2.93-15.36,8.79-21.21c11.71-11.72,30.71-11.71,42.43,0l234.04,234.04c5.86,5.86,8.79,13.54,8.79,21.21s-2.93,15.36-8.79,21.21c-5.86,5.86-13.54,8.79-21.21,8.79Z"  /><rect x="257.52" y="129.52" width="60" height="185.2"  /><rect x="132.05" y="255.74" width="185.46" height="60"  /><path d="M963,993.24c-7.68,0-15.35-2.93-21.21-8.79l-233.5-233.5c-5.86-5.86-8.79-13.54-8.79-21.21s2.93-15.36,8.79-21.21c11.71-11.72,30.71-11.72,42.43,0l233.5,233.5c5.86,5.86,8.79,13.54,8.79,21.21s-2.93,15.36-8.79,21.21c-5.86,5.86-13.54,8.79-21.21,8.79Z"  /><rect x="683.26" y="685.05" width="60" height="185.2"  /><rect x="683.27" y="684.04" width="185.46" height="60"  /></svg>