<?xml version="1.0" encoding="UTF-8"?><svg id="c" xmlns="http://www.w3.org/2000/svg" viewBox="0 0 1000 1000"><rect x="402" y="930" width="100" height="70" /><rect x="212.06" y="930" width="116.89" height="70" /><polygon points="139 1000 4 1000 4 865 74 865 74 930 139 930 139 1000" /><path d="M74,747.9H4v-187.35h70v187.35ZM74,443.45H4v-187.36h70v187.36Z" /><polygon points="74 139 4 139 4 4 139 4 139 74 74 74 74 139" /><rect x="212.06" y="4" width="116.89" height="70" /><rect x="402" y="4" width="100" height="70" /><path d="M502,1000c-.57,0-1.15-.01-1.73-.04-.57-.03-1.15-.08-1.71-.13-.57-.06-1.15-.13-1.71-.22-.56-.08-1.13-.18-1.69-.29-.56-.12-1.12-.24-1.67-.38-.55-.14-1.11-.3-1.65-.46-.55-.17-1.1-.35-1.63-.54-.54-.2-1.07-.4-1.6-.62-.52-.22-1.05-.45-1.56-.7-.52-.24-1.03-.5-1.54-.76-.5-.27-1-.55-1.49-.85-.49-.29-.98-.6-1.45-.91-.47-.32-.95-.65-1.41-.99-.46-.33-.91-.69-1.35-1.05-.45-.36-.89-.74-1.31-1.12-.42-.39-.85-.79-1.25-1.19-.4-.41-.8-.83-1.19-1.25-.38-.43-.76-.87-1.12-1.31-.36-.44-.72-.9-1.06-1.36-.33-.45-.67-.93-.98-1.4-.32-.48-.62-.96-.92-1.45-.29-.49-.57-.99-.84-1.5-.27-.5-.52-1.01-.77-1.53-.24-.51-.47-1.04-.69-1.56-.22-.53-.43-1.07-.62-1.6-.19-.54-.37-1.08-.54-1.63-.16-.54-.32-1.1-.46-1.65-.14-.55-.27-1.11-.38-1.67-.11-.56-.21-1.13-.3-1.69-.08-.57-.15-1.14-.21-1.71-.06-.57-.1-1.15-.13-1.72-.03-.57-.04-1.15-.04-1.72s0-1.15.04-1.73c.03-.57.07-1.14.13-1.71.06-.57.13-1.14.21-1.71.09-.56.19-1.13.3-1.69.11-.56.24-1.12.38-1.67.14-.55.3-1.11.46-1.65.17-.55.35-1.09.54-1.63.19-.54.4-1.07.62-1.6.22-.52.45-1.05.69-1.56.25-.52.5-1.03.77-1.54.27-.5.55-1,.84-1.49.3-.49.6-.98.92-1.45.31-.47.65-.95.98-1.41.34-.45.7-.91,1.06-1.35.36-.45.74-.89,1.12-1.31.39-.42.79-.85,1.19-1.25.4-.4.83-.8,1.25-1.19.42-.38.86-.76,1.31-1.12.44-.36.89-.72,1.35-1.06.46-.33.94-.67,1.41-.98.47-.32.96-.62,1.45-.91.49-.3.99-.58,1.49-.85.51-.26,1.02-.52,1.54-.77.51-.24,1.04-.47,1.56-.69.53-.22,1.06-.42,1.6-.62.53-.19,1.08-.37,1.63-.54.54-.16,1.1-.32,1.65-.46.55-.14,1.11-.26,1.67-.38.56-.11,1.13-.21,1.69-.29.56-.09,1.14-.16,1.71-.22.57-.05,1.14-.1,1.71-.13,1.15-.06,2.31-.06,3.45,0,.57.03,1.15.08,1.72.13.57.06,1.14.13,1.71.22.56.08,1.13.18,1.69.29.56.12,1.12.24,1.67.38.55.14,1.11.3,1.65.46.54.17,1.09.35,1.63.54.53.2,1.07.4,1.6.62.52.22,1.05.45,1.56.69.52.25,1.03.51,1.53.77.5.27,1.01.55,1.5.85.49.29.97.59,1.45.91.47.31.95.65,1.4.98.46.34.92.7,1.36,1.06.44.36.88.74,1.31,1.12.42.39.84.79,1.25,1.19.4.4.8.83,1.19,1.25.38.42.76.86,1.12,1.31.36.44.71.9,1.05,1.35.34.46.67.94.99,1.41.31.47.62.96.91,1.45s.58.99.84,1.49c.27.51.53,1.02.77,1.54.25.51.48,1.04.7,1.56.21.53.42,1.06.61,1.6.2.54.38,1.08.54,1.63.17.54.32,1.1.46,1.65.14.55.27,1.11.38,1.67.12.56.22,1.13.3,1.69.09.57.16,1.14.21,1.71.06.57.11,1.14.13,1.71.03.58.05,1.16.05,1.73s-.02,1.15-.05,1.72c-.02.57-.07,1.15-.13,1.72-.05.57-.12,1.14-.21,1.71-.08.56-.18,1.13-.3,1.69-.11.56-.24,1.12-.38,1.67s-.29,1.11-.46,1.65c-.16.55-.34,1.09-.54,1.63-.19.53-.4,1.07-.61,1.6-.22.52-.45,1.05-.7,1.56-.24.52-.5,1.03-.77,1.53-.26.51-.55,1.01-.84,1.5s-.6.97-.91,1.45c-.32.47-.65.95-.99,1.4-.34.46-.69.92-1.05,1.36-.36.44-.74.88-1.12,1.31-.39.42-.79.84-1.19,1.25-.41.4-.83.8-1.25,1.19-.43.38-.87.76-1.31,1.12-.44.36-.9.72-1.36,1.05-.45.34-.93.67-1.4.99-.48.31-.96.62-1.45.91-.49.3-1,.58-1.5.85-.5.26-1.01.52-1.53.76-.51.25-1.04.48-1.56.7-.53.22-1.07.42-1.6.62-.54.19-1.09.37-1.63.54-.54.16-1.1.32-1.65.46-.55.14-1.11.26-1.67.38-.56.11-1.13.21-1.69.29-.57.09-1.14.16-1.71.22-.57.05-1.15.1-1.72.13-.57.03-1.15.04-1.72.04Z" /><path d="M815,965c0-19.33,15.67-35,35-35h0c19.33,0,35,15.67,35,35h0c0,19.33-15.67,35-35,35h0c-19.33,0-35-15.67-35-35ZM699,965c0-19.33,15.67-35,35-35h0c19.33,0,35,15.67,35,35h0c0,19.33-15.67,35-35,35h0c-19.33,0-35-15.67-35-35ZM583,965c0-19.33,15.67-35,35-35h0c19.33,0,35,15.67,35,35h0c0,19.33-15.67,35-35,35h0c-19.33,0-35-15.67-35-35Z" /><path d="M966,1000c-.57,0-1.15-.01-1.73-.04-.57-.03-1.14-.08-1.71-.13-.57-.06-1.14-.13-1.71-.22-.56-.08-1.13-.18-1.69-.29-.56-.12-1.12-.24-1.67-.38-.55-.14-1.11-.3-1.65-.46-.55-.17-1.1-.35-1.63-.54-.54-.2-1.07-.4-1.6-.62-.52-.22-1.05-.45-1.56-.7-.52-.24-1.03-.5-1.54-.76-.5-.27-1-.55-1.49-.85-.49-.29-.98-.6-1.45-.91-.48-.32-.95-.65-1.41-.99-.46-.33-.91-.69-1.35-1.05-.45-.36-.89-.74-1.31-1.12-.43-.39-.85-.79-1.25-1.19s-.81-.83-1.19-1.25c-.38-.43-.76-.87-1.12-1.31-.36-.44-.72-.9-1.06-1.36-.34-.45-.67-.93-.98-1.4-.32-.48-.62-.96-.92-1.45-.29-.49-.57-.99-.84-1.5-.27-.5-.52-1.01-.77-1.53-.24-.51-.47-1.04-.69-1.56-.22-.53-.43-1.07-.62-1.6-.19-.54-.37-1.08-.54-1.63-.16-.54-.32-1.1-.46-1.65-.14-.55-.26-1.11-.38-1.67-.11-.56-.21-1.13-.29-1.69-.09-.57-.16-1.14-.22-1.71-.06-.57-.1-1.15-.13-1.72-.03-.57-.04-1.15-.04-1.72s0-1.15.04-1.73c.03-.57.07-1.14.13-1.71.06-.57.13-1.14.22-1.71.08-.56.18-1.13.29-1.69.12-.56.24-1.12.38-1.67.14-.55.3-1.11.46-1.65.17-.55.35-1.09.54-1.63.19-.54.4-1.07.62-1.6.22-.52.45-1.05.69-1.56.25-.52.5-1.03.77-1.54.27-.5.55-1,.84-1.49.3-.49.6-.98.92-1.45.31-.47.64-.95.98-1.41.34-.45.7-.91,1.06-1.35.36-.45.74-.89,1.12-1.31s.78-.85,1.19-1.25c.4-.4.82-.8,1.25-1.19.42-.38.86-.76,1.31-1.12.44-.36.89-.72,1.35-1.06.46-.33.93-.67,1.41-.98.47-.32.96-.62,1.45-.91.49-.3.99-.58,1.49-.85.51-.26,1.02-.52,1.54-.77.51-.24,1.04-.47,1.56-.69.53-.22,1.06-.42,1.6-.62.53-.19,1.08-.37,1.63-.54.54-.16,1.1-.32,1.65-.46.55-.14,1.11-.26,1.67-.38.56-.11,1.13-.21,1.69-.29.57-.09,1.14-.16,1.71-.22.57-.05,1.14-.1,1.71-.13,1.15-.06,2.31-.06,3.45,0,.57.03,1.15.08,1.72.13.57.06,1.14.13,1.71.22.56.08,1.13.18,1.69.29.56.12,1.12.24,1.67.38.55.14,1.11.3,1.65.46.54.17,1.09.35,1.63.54.53.2,1.07.4,1.6.62.52.22,1.05.45,1.56.69.52.25,1.03.51,1.53.77.5.27,1.01.55,1.5.85.48.29.97.59,1.45.91.47.31.94.65,1.4.98.46.34.92.7,1.36,1.06.44.36.88.74,1.31,1.12.42.39.84.79,1.25,1.19.4.4.8.83,1.19,1.25.38.42.76.86,1.12,1.31.36.44.71.9,1.05,1.35.34.46.67.94.99,1.41.31.47.62.96.91,1.45s.58.99.85,1.49c.26.51.52,1.02.76,1.54.25.51.48,1.04.7,1.56.22.53.42,1.06.62,1.6.19.54.37,1.08.53,1.63.17.54.33,1.1.47,1.65.13.55.26,1.11.37,1.67.12.56.22,1.13.3,1.69.09.57.16,1.14.22,1.71.05.57.1,1.14.13,1.71.03.58.04,1.16.04,1.73s0,1.15-.04,1.72-.08,1.15-.13,1.72c-.06.57-.13,1.14-.22,1.71-.08.56-.18,1.13-.3,1.69-.11.56-.24,1.12-.37,1.67-.14.55-.3,1.11-.47,1.65-.16.55-.34,1.09-.53,1.63-.2.53-.4,1.07-.62,1.6-.22.52-.45,1.05-.7,1.56-.24.52-.5,1.03-.76,1.53-.27.51-.56,1.01-.85,1.5s-.6.97-.91,1.45c-.32.47-.65.95-.99,1.4-.34.46-.69.92-1.05,1.36-.36.44-.74.88-1.12,1.31-.39.42-.79.84-1.19,1.25-.41.4-.83.8-1.25,1.19-.43.38-.87.76-1.31,1.12-.44.36-.9.72-1.36,1.05-.46.34-.93.67-1.4.99-.48.31-.97.62-1.45.91-.49.3-1,.58-1.5.85-.5.26-1.01.52-1.53.76-.51.25-1.04.48-1.56.7-.53.22-1.07.42-1.6.62-.54.19-1.09.37-1.63.54-.54.16-1.1.32-1.65.46-.55.14-1.11.26-1.67.38-.56.11-1.13.21-1.69.29-.57.09-1.14.16-1.71.22-.57.05-1.15.1-1.72.13-.57.03-1.15.04-1.72.04Z" /><path d="M931,832.71c0-19.33,15.67-35,35-35h0c19.33,0,35,15.67,35,35h0c0,19.33-15.67,35-35,35h0c-19.33,0-35-15.67-35-35ZM931,700.43c0-19.33,15.67-35,35-35h0c19.33,0,35,15.67,35,35h0c0,19.33-15.67,35-35,35h0c-19.33,0-35-15.67-35-35ZM931,568.14c0-19.33,15.67-35,35-35h0c19.33,0,35,15.67,35,35h0c0,19.33-15.67,35-35,35h0c-19.33,0-35-15.67-35-35ZM931,435.86c0-19.33,15.67-35,35-35h0c19.33,0,35,15.67,35,35h0c0,19.33-15.67,35-35,35h0c-19.33,0-35-15.67-35-35ZM931,303.57c0-19.33,15.67-35,35-35h0c19.33,0,35,15.67,35,35h0c0,19.33-15.67,35-35,35h0c-19.33,0-35-15.67-35-35ZM931,171.29c0-19.34,15.67-35.01,35-35.01h0c19.33,0,35,15.67,35,35.01h0c0,19.32-15.67,35-35,35h0c-19.33,0-35-15.68-35-35Z" /><path d="M966,74c-.57,0-1.15-.01-1.73-.04-.57-.03-1.15-.08-1.71-.13-.57-.06-1.15-.13-1.71-.22-.56-.08-1.13-.18-1.69-.29-.56-.12-1.12-.24-1.67-.38-.55-.14-1.11-.3-1.65-.47-.55-.16-1.1-.34-1.63-.53-.54-.2-1.07-.4-1.6-.62-.52-.22-1.05-.45-1.56-.7-.52-.24-1.03-.5-1.54-.76-.5-.27-1-.55-1.49-.85-.49-.29-.98-.6-1.45-.91-.47-.32-.95-.65-1.41-.98-.46-.34-.91-.7-1.35-1.06-.45-.36-.88-.74-1.31-1.12-.42-.39-.84-.79-1.25-1.19-.4-.41-.8-.83-1.19-1.25-.38-.43-.76-.87-1.12-1.31-.36-.44-.72-.9-1.06-1.36-.33-.45-.66-.93-.98-1.4-.32-.48-.62-.97-.92-1.45-.29-.49-.57-.99-.84-1.5-.26-.5-.52-1.01-.77-1.53-.24-.51-.47-1.04-.69-1.57-.22-.52-.42-1.06-.62-1.59-.19-.54-.37-1.09-.54-1.63-.16-.54-.32-1.1-.46-1.65-.13-.55-.26-1.12-.37-1.67-.12-.56-.22-1.13-.3-1.69-.09-.57-.16-1.14-.22-1.71-.05-.57-.1-1.15-.13-1.72-.03-.57-.04-1.15-.04-1.72s0-1.15.04-1.73c.03-.57.08-1.14.13-1.71.06-.57.13-1.14.22-1.71.08-.56.18-1.13.3-1.69.11-.56.24-1.12.37-1.67.14-.55.3-1.11.46-1.65.17-.55.35-1.09.54-1.63.2-.54.4-1.07.62-1.6.22-.52.45-1.05.69-1.56.25-.52.51-1.03.77-1.54.27-.5.55-1,.84-1.49.3-.49.6-.98.92-1.45.32-.48.65-.95.98-1.41.34-.46.7-.91,1.06-1.35.36-.45.74-.89,1.12-1.31.39-.43.79-.85,1.19-1.25.41-.41.83-.81,1.25-1.19.43-.38.86-.76,1.31-1.12.44-.36.89-.72,1.35-1.06s.94-.67,1.41-.98c.47-.32.96-.62,1.45-.92.49-.29.99-.57,1.49-.84.51-.27,1.02-.52,1.54-.77.51-.24,1.04-.47,1.56-.69.53-.22,1.06-.43,1.6-.62.53-.19,1.08-.37,1.63-.54.54-.16,1.1-.32,1.65-.46.55-.14,1.11-.27,1.67-.38.56-.11,1.13-.21,1.69-.3.56-.08,1.14-.15,1.71-.21.56-.06,1.14-.1,1.71-.13,1.15-.06,2.31-.06,3.45,0,.57.03,1.15.07,1.72.13.57.06,1.14.13,1.71.21.56.09,1.13.19,1.69.3.55.11,1.12.24,1.67.38.55.14,1.11.3,1.65.46.54.17,1.09.35,1.63.54.53.19,1.07.4,1.6.62.52.22,1.05.45,1.56.69.52.25,1.03.5,1.53.77.5.27,1.01.55,1.5.84.49.3.97.6,1.45.92.47.31.95.64,1.4.98.46.34.92.7,1.36,1.06.44.36.88.74,1.31,1.12.42.38.84.78,1.25,1.19s.8.82,1.19,1.25c.38.42.76.86,1.12,1.31.36.44.72.89,1.05,1.35.34.46.67.93.99,1.41.31.47.62.96.91,1.45.3.49.58.99.85,1.49.26.51.52,1.02.76,1.54.25.51.48,1.04.7,1.56.22.53.42,1.06.62,1.6.19.54.37,1.08.53,1.63.17.54.33,1.1.46,1.65.14.55.27,1.11.38,1.67.12.56.22,1.13.3,1.69.09.57.16,1.14.22,1.71.05.57.1,1.14.13,1.71.02.58.04,1.16.04,1.73s-.02,1.15-.04,1.72c-.03.57-.08,1.15-.13,1.72-.06.57-.13,1.14-.22,1.71-.08.56-.18,1.13-.3,1.69-.11.55-.24,1.12-.38,1.67-.13.55-.29,1.11-.46,1.65-.16.54-.34,1.09-.53,1.63-.2.53-.4,1.07-.62,1.59-.22.53-.45,1.06-.7,1.57-.24.52-.5,1.03-.76,1.53-.27.51-.55,1.01-.85,1.5-.29.48-.6.97-.91,1.45-.32.47-.65.95-.99,1.4-.33.46-.69.92-1.05,1.36-.36.44-.74.88-1.12,1.31-.39.42-.79.84-1.19,1.25-.41.4-.83.8-1.25,1.19-.43.38-.87.76-1.31,1.12-.44.36-.9.72-1.36,1.06-.45.33-.93.66-1.4.98-.48.31-.96.62-1.45.91-.49.3-1,.58-1.5.85-.5.26-1.01.52-1.53.76-.51.25-1.04.48-1.56.7-.53.22-1.07.42-1.6.62-.54.19-1.09.37-1.63.53-.54.17-1.1.33-1.65.47-.55.14-1.12.26-1.67.38-.56.11-1.13.21-1.69.29-.57.09-1.14.16-1.71.22-.57.05-1.15.1-1.72.13-.57.03-1.15.04-1.72.04Z" /><path d="M815,39c0-19.33,15.67-35,35-35h0c19.33,0,35,15.67,35,35h0c0,19.33-15.67,35-35,35h0c-19.33,0-35-15.67-35-35ZM699,39c0-19.33,15.67-35,35-35h0c19.33,0,35,15.67,35,35h0c0,19.33-15.67,35-35,35h0c-19.33,0-35-15.67-35-35ZM583,39c0-19.33,15.67-35,35-35h0c19.33,0,35,15.67,35,35h0c0,19.33-15.67,35-35,35h0c-19.33,0-35-15.67-35-35Z" /><path d="M502,74c-.57,0-1.15-.01-1.73-.04-.57-.03-1.14-.08-1.71-.13-.57-.06-1.14-.13-1.71-.22-.56-.08-1.13-.18-1.69-.29-.56-.12-1.12-.24-1.67-.38-.55-.14-1.11-.3-1.65-.47-.55-.16-1.09-.34-1.63-.53-.53-.2-1.07-.4-1.6-.62-.52-.22-1.05-.45-1.56-.7-.52-.24-1.03-.5-1.53-.76-.51-.27-1.01-.55-1.5-.85-.49-.29-.98-.6-1.45-.91-.47-.32-.95-.65-1.41-.98-.45-.34-.91-.7-1.35-1.06-.45-.36-.89-.74-1.31-1.12-.42-.39-.85-.79-1.25-1.19-.4-.41-.8-.83-1.19-1.25-.38-.43-.76-.87-1.12-1.31-.36-.44-.72-.9-1.06-1.36-.33-.45-.67-.93-.98-1.4-.32-.48-.62-.97-.92-1.45-.29-.49-.57-.99-.84-1.5-.27-.5-.52-1.01-.77-1.53-.24-.51-.47-1.04-.69-1.57-.22-.52-.42-1.06-.62-1.59-.19-.54-.37-1.09-.54-1.63-.16-.54-.32-1.1-.46-1.65-.14-.55-.26-1.12-.38-1.67-.11-.56-.21-1.13-.29-1.69-.09-.57-.16-1.14-.22-1.71-.06-.57-.1-1.15-.13-1.72-.03-.57-.04-1.15-.04-1.72s0-1.15.04-1.73c.03-.57.07-1.14.13-1.71.06-.57.13-1.14.22-1.71.08-.56.18-1.13.29-1.69.12-.56.24-1.12.38-1.67.14-.55.3-1.11.46-1.65.17-.55.35-1.09.54-1.63.2-.54.4-1.07.62-1.6.22-.52.45-1.05.69-1.56.25-.52.5-1.03.77-1.54.27-.5.55-1,.84-1.49.3-.49.6-.98.92-1.45.31-.48.65-.95.98-1.41.34-.46.7-.91,1.06-1.35.36-.45.74-.89,1.12-1.31.39-.43.79-.85,1.19-1.25.4-.41.83-.81,1.25-1.19s.86-.76,1.31-1.12c.44-.36.9-.72,1.35-1.06.46-.34.94-.67,1.41-.98.47-.32.96-.62,1.45-.92.49-.29.99-.57,1.5-.84.5-.27,1.01-.52,1.53-.77.51-.24,1.04-.47,1.56-.69.53-.22,1.07-.43,1.6-.62.54-.19,1.08-.37,1.63-.54.54-.16,1.1-.32,1.65-.46.55-.14,1.11-.27,1.67-.38.56-.11,1.13-.21,1.69-.3.57-.08,1.14-.15,1.71-.21.57-.06,1.14-.1,1.71-.13,1.15-.06,2.31-.06,3.46,0,.57.03,1.14.07,1.71.13.57.06,1.14.13,1.71.21.56.09,1.13.19,1.69.3s1.12.24,1.67.38c.55.14,1.11.3,1.65.46.54.17,1.09.35,1.63.54.53.19,1.07.4,1.59.62.53.22,1.06.45,1.57.69.52.25,1.03.5,1.53.77.5.27,1.01.55,1.5.84.48.3.97.6,1.45.92.47.31.94.64,1.4.98s.92.7,1.36,1.06c.44.36.88.74,1.31,1.12.42.38.84.78,1.25,1.19s.8.82,1.19,1.25c.38.42.76.86,1.12,1.31.36.44.71.89,1.05,1.35.34.46.67.93.99,1.41.31.47.62.96.91,1.45s.58.99.85,1.49c.26.51.52,1.02.76,1.54.25.51.48,1.04.7,1.56.21.53.42,1.06.61,1.6.2.54.38,1.08.54,1.63.17.54.32,1.1.46,1.65.14.55.27,1.11.38,1.67.12.56.22,1.13.3,1.69.09.57.16,1.14.21,1.71.06.57.11,1.14.13,1.71.03.58.05,1.16.05,1.73s-.02,1.15-.05,1.72c-.02.57-.07,1.15-.13,1.72-.05.57-.12,1.14-.21,1.71-.08.56-.18,1.13-.3,1.69-.11.55-.24,1.12-.38,1.67s-.29,1.11-.46,1.65c-.16.54-.34,1.09-.54,1.63-.19.53-.4,1.07-.61,1.59-.22.53-.45,1.06-.7,1.57-.24.52-.5,1.03-.76,1.53-.27.51-.56,1.01-.85,1.5-.29.48-.6.97-.91,1.45-.32.47-.65.95-.99,1.4-.34.46-.69.92-1.05,1.36-.36.44-.74.88-1.12,1.31-.39.42-.79.84-1.19,1.25-.41.4-.83.8-1.25,1.19-.43.38-.87.76-1.31,1.12-.44.36-.9.72-1.36,1.06-.46.33-.93.66-1.4.98-.48.31-.97.62-1.45.91-.49.3-1,.58-1.5.85-.5.26-1.01.52-1.53.76-.51.25-1.04.48-1.57.7-.52.22-1.06.42-1.59.62-.54.19-1.09.37-1.63.53-.54.17-1.1.33-1.65.47-.55.14-1.11.26-1.67.38-.56.11-1.13.21-1.69.29-.57.09-1.14.16-1.71.22-.57.05-1.14.1-1.71.13-.58.03-1.16.04-1.73.04Z" /><path d="M472,877c0-16.57,13.43-30,30-30h0c16.57,0,30,13.43,30,30h0c0,16.57-13.43,30-30,30h0c-16.57,0-30-13.43-30-30ZM472,752c0-16.57,13.43-30,30-30h0c16.57,0,30,13.43,30,30h0c0,16.57-13.43,30-30,30h0c-16.57,0-30-13.43-30-30ZM472,627c0-16.57,13.43-30,30-30h0c16.57,0,30,13.43,30,30h0c0,16.57-13.43,30-30,30h0c-16.57,0-30-13.43-30-30ZM472,502c0-16.57,13.43-30,30-30h0c16.57,0,30,13.43,30,30h0c0,16.57-13.43,30-30,30h0c-16.57,0-30-13.43-30-30ZM472,377c0-16.57,13.43-30,30-30h0c16.57,0,30,13.43,30,30h0c0,16.57-13.43,30-30,30h0c-16.57,0-30-13.43-30-30ZM472,252c0-16.57,13.43-30,30-30h0c16.57,0,30,13.43,30,30h0c0,16.57-13.43,30-30,30h0c-16.57,0-30-13.43-30-30ZM472,127c0-16.57,13.43-30,30-30h0c16.57,0,30,13.43,30,30h0c0,16.57-13.43,30-30,30h0c-16.57,0-30-13.43-30-30Z" /></svg>