<?xml version="1.0" encoding="UTF-8"?><svg id="a" xmlns="http://www.w3.org/2000/svg" viewBox="0 0 18 18"><rect id="b" width="18" height="18" style="fill:rgba(255,19,220,0); stroke-width:0px;"/><path d="M9,1C4.58,1,1,4.58,1,9s3.58,8,8,8,8-3.58,8-8S13.42,1,9,1ZM8.85,3.15c.75-.04,1.39.53,1.43,1.28,0,.04,0,.09,0,.13.06.73-.49,1.37-1.22,1.43-.07,0-.14,0-.21,0-.75.05-1.39-.52-1.43-1.27,0-.05,0-.11,0-.16-.03-.75.55-1.38,1.3-1.41h0s.09,0,.13,0ZM11,13.5c0,.28-.22.5-.5.5h-3c-.28,0-.5-.22-.5-.5v-1c0-.28.22-.5.5-.5h.5v-3h-.5c-.28,0-.5-.22-.5-.5v-1c0-.28.22-.5.5-.5h2c.28,0,.5.22.5.5v4.5h.5c.28,0,.5.22.5.5v1Z" style="fill:none; stroke-width:0px;"/></svg>